<?xml version="1.0" encoding="utf-8"?>
<!-- Generator: Adobe Illustrator 24.1.3, SVG Export Plug-In . SVG Version: 6.00 Build 0)  -->
<svg version="1.1" id="Capa_1" xmlns="http://www.w3.org/2000/svg" xmlns:xlink="http://www.w3.org/1999/xlink" x="0px" y="0px"
	 viewBox="0 0 512 512" style="enable-background:new 0 0 512 512;" xml:space="preserve">
<style type="text/css">
	.st0{fill:#C3DAFD;}
	.st1{fill:#A1B8D8;}
	.st2{fill:#2B4CA1;}
	.st3{fill:#213B82;}
	.st4{fill:#E4F3FF;}
	.st5{fill:#84D9F3;}
	.st6{fill:#77B0FB;}
</style>
<g>
	<path class="st0" d="M191.1,357.2h-76v-63.9l28.8-51.5h47.2V357.2z"/>
	<path class="st1" d="M396.9,357.2h-76V241.8h47.3l28.7,51.5V357.2z"/>
	<path class="st2" d="M327.5,333.2h-143l-13.4,24l16.3,40.3h136l17.5-40.3L327.5,333.2z"/>
	<path class="st3" d="M256.1,337c0,8.2,0,60.3,0,60.5c6.2,0,63.8,0,67.4,0l17.5-40.3L327.5,337H256.1z"/>
	<path class="st4" d="M322.5,112.7c-24.1-62.3-62.4-93.9-66.4-98.7c-2.1,3.1-87.1,73.4-84.9,202.2v141H341v-141
		C341.5,181.3,335.2,145.5,322.5,112.7L322.5,112.7z"/>
	<path class="st0" d="M322.5,112.7c-24.1-62.3-62.4-93.9-66.4-98.7l0,0v343.2h84.8v-141C341.5,181.3,335.2,145.5,322.5,112.7
		L322.5,112.7z"/>
	<path class="st5" d="M256,241.9c-40.2,0-61.3-49-32.3-78c28.7-28.8,78-8.2,78,32.3C301.8,221.4,281.3,241.9,256,241.9z"/>
	<path class="st6" d="M256.1,150.5v91.4c25.2,0,45.7-20.5,45.7-45.7C301.8,169,279.4,150.7,256.1,150.5z"/>
</g>
</svg>
